# xmcd
#
# Track frame offsets:
#	150
#	22950
#	37957
#	57314
#	77830
#	90844
#	108718
#	123051
#	141629
#	161300
#	173322
#	185344
#	205015
#	220315
#	238894
#	255284
#	274132
#	288532
#	301576
#	313549
#	331025
#	343598
#
# Disc length: 4757 seconds
#
# Revision: 0
# Processed by: cddbd v1.5.2PL0 Copyright (c) Steve Scherf et al.
# Submitted via: EZCDAudioConverter 2.1.7.1
#
DISCID=24129316
DTITLE=Ministry Of Sound - Back To Old Skool Garage Classics
DYEAR=2012
DGENRE=English
TTITLE0=DJ Pied Piper - The Master Of Ceremonies - Do You Really Like It?
TTITLE1=Artful Dodger - Craig David - Dreem Teem - It Ain't Enough (Dub Mix)
TTITLE2=Craig David - Seven Days (Sunship Remix)
TTITLE3=DJ Luck - JJ - Mc Neat - Ain't No Stoppin Us (Oracles Mix)
TTITLE4=Lynsey Moore - Ramsey and Fen - Love Bug
TTITLE5=Robin S. - Show Me Love
TTITLE6=Kristine Blond - Love Shy (Club Asylum Mix)
TTITLE7=Amar - Sometimes It Snows In April (Dreem House Dub Mix)
TTITLE8=Shola Ama - Run To Me (Club Asylum Vocal Mix)
TTITLE9=Indo - RU Sleeping? (Bump and Flex Remix)
TTITLE10=TJR - Xavier - Just Gets Better (TJR Dub)
TTITLE11=10 Below - Kele Le Roc - My Love
TTITLE12=Smokin Beats - Dreams
TTITLE13=Robbie Craig and Gerideau - Who's The Better Man? (Godfather Remix)
TTITLE14=Lonyo - Summer Of Love
TTITLE15=Richie Dan and K-Warren - Call It Fate
TTITLE16=Baby D - Let Me Be Your Fantasy (Trick or Treat Remix)
TTITLE17=Bizzi - Bizzi's Party (Booker T Remix)
TTITLE18=Cleptomaniacs - All I Do (Bump and Flex Club Mix)
TTITLE19=Somore - Damon Trueitt - I Refuse (What You Want) (Industry Standard M
TTITLE19=ix)
TTITLE20=Once Woz Nice - Messing Around (Wideboys Remix)
TTITLE21=The Underdog Project - Summer Jam (2-Step Mix)
EXTD=
EXTT0=
EXTT1=
EXTT2=
EXTT3=
EXTT4=
EXTT5=
EXTT6=
EXTT7=
EXTT8=
EXTT9=
EXTT10=
EXTT11=
EXTT12=
EXTT13=
EXTT14=
EXTT15=
EXTT16=
EXTT17=
EXTT18=
EXTT19=
EXTT20=
EXTT21=
PLAYORDER=
